<svg width="167" height="36" viewBox="0 0 167 36" fill="none" xmlns="http://www.w3.org/2000/svg">
<g clip-path="url(#clip0_710_21547)">
<path fill-rule="evenodd" clip-rule="evenodd" d="M3.352 25.6297H6.851L6.275 23.9127C5.96029 22.9973 5.65527 22.0786 5.36 21.1567H4.902C4.666 21.8347 4.459 22.4667 3.957 23.9127L3.352 25.6297ZM0 29.7997L3.765 19.5157H6.555L10.277 29.7997V30.3267H8.447L7.383 27.2397H2.792L1.729 30.3267H0.0019989V29.7997H0ZM21.687 27.4817C21.037 29.1827 19.517 30.5387 17.022 30.5387C13.862 30.5387 11.811 28.1587 11.811 24.9367C11.811 21.7137 13.863 19.3047 17.051 19.3047C19.37 19.3047 20.979 20.4947 21.629 22.3167L19.753 22.6927C19.251 21.5927 18.306 20.9157 17.022 20.9157C14.926 20.9157 13.73 22.6777 13.73 24.9357C13.73 27.2107 14.985 28.9267 17.096 28.9267C18.469 28.9267 19.355 28.1437 19.842 27.1647L21.687 27.4817ZM30.692 26.1107V19.5157H32.552V26.1557C32.552 29.2887 30.943 30.5687 28.286 30.5687C25.628 30.5687 24.019 29.2887 24.019 26.1567V19.5157H25.879V26.1107C25.879 28.0687 26.779 29.0177 28.286 29.0177C29.792 29.0177 30.692 28.0687 30.692 26.1107ZM35.755 30.3277H37.615V19.5157H35.755V30.3277ZM43.092 21.1867H40.036V19.5157H47.964V21.1867H44.939V30.3277H43.093V21.1877L43.092 21.1867ZM52.909 26.3067L49.499 20.1327V19.5157H51.241L52.407 21.7137C53.042 22.9037 53.278 23.4607 53.898 24.5897C54.488 23.4907 55.006 22.5417 55.404 21.7437L56.556 19.5157H58.209V20.1327L54.769 26.3067V30.3277H52.909V26.3077V26.3067ZM65.531 27.2557C65.738 28.3257 66.579 28.9877 67.864 28.9877C69.133 28.9877 69.871 28.3247 69.871 27.3457C69.871 26.3667 69.119 26.1107 67.893 25.7657L67.096 25.5387C65.206 24.9967 64.055 24.1237 64.055 22.4067C64.055 20.5997 65.502 19.3047 67.819 19.3047C69.99 19.3047 71.318 20.4487 71.54 22.2107L69.768 22.3607C69.547 21.4577 68.912 20.9307 67.76 20.9307C66.683 20.9307 66.033 21.5027 66.033 22.3007C66.033 23.2047 66.771 23.4907 67.982 23.8827L68.735 24.1227C70.639 24.7257 71.806 25.3277 71.806 27.2107C71.806 29.2287 70.152 30.5687 67.805 30.5687C65.62 30.5687 64.069 29.5287 63.73 27.4207L65.531 27.2557ZM83.719 27.4817C83.07 29.1827 81.549 30.5387 79.054 30.5387C75.894 30.5387 73.842 28.1587 73.842 24.9367C73.842 21.7137 75.894 19.3047 79.082 19.3047C81.402 19.3047 83.011 20.4947 83.66 22.3167L81.785 22.6927C81.284 21.5927 80.337 20.9157 79.054 20.9157C76.957 20.9157 75.761 22.6777 75.761 24.9357C75.761 27.2107 77.016 28.9267 79.127 28.9267C80.501 28.9267 81.387 28.1437 81.874 27.1647L83.719 27.4817ZM87.999 25.5837V30.3277H86.154V19.5157H87.999V23.9277H92.738V19.5157H94.583V30.3277H92.738V25.5837H87.999ZM97.89 19.5157H104.754V21.1717H99.706V23.9877H104.402V25.6287H99.706V28.6707H104.858V30.3277H97.89V19.5157ZM109.523 28.7007H111.132C113.302 28.7007 114.705 27.6017 114.705 24.8907C114.705 22.2857 113.567 21.1267 110.526 21.1267H109.523V28.7007ZM107.678 19.5157H111.132C112.712 19.5157 113.997 19.8757 114.897 20.5697C116.049 21.4577 116.639 22.9037 116.639 24.8157C116.639 26.4727 116.197 27.8727 115.266 28.8517C114.38 29.7857 113.022 30.3277 111.102 30.3277H107.678V19.5157ZM125.94 26.1107V19.5157H127.799V26.1557C127.799 29.2887 126.189 30.5687 123.532 30.5687C120.876 30.5687 119.266 29.2887 119.266 26.1567V19.5157H121.125V26.1107C121.125 28.0687 122.027 29.0177 123.532 29.0177C125.038 29.0177 125.94 28.0687 125.94 26.1107ZM131.002 19.5157H132.861V28.6707H137.676V30.3277H131.002V19.5157ZM140.139 30.3277H142V19.5157H140.139V30.3277ZM145.307 19.5157H147.639L151.109 25.6747C151.492 26.3667 151.979 27.3007 152.32 27.9487H152.348C152.33 26.9698 152.32 25.9908 152.32 25.0117V19.5157H154.12V30.3277H151.847L148.437 24.3797C147.861 23.3697 147.373 22.4067 147.093 21.9247H147.063C147.063 22.4217 147.107 23.5357 147.107 24.3797V30.3277H145.307V19.5157ZM166.817 24.6197L167.348 25.2977C167.273 28.7167 165.045 30.5377 162.211 30.5377C158.992 30.5377 156.82 28.2647 156.82 24.9367C156.82 21.6987 158.888 19.3047 162.18 19.3047C164.601 19.3047 166.241 20.5847 166.92 22.3317L165.029 22.6917C164.557 21.6087 163.539 20.9157 162.195 20.9157C159.995 20.9157 158.726 22.5867 158.726 24.9057C158.726 27.2707 160.009 28.9267 162.211 28.9267C164.159 28.9267 165.236 27.7667 165.442 26.1867H161.325V24.6197H166.817Z" fill="#4F4F4F"/>
<path d="M53 7.99956V0.101562H55.464C57.18 0.101562 58.203 0.838562 58.203 2.37856C58.203 3.97356 57.092 4.67756 55.453 4.67756H53.924V7.99956H53ZM53.924 0.904562V3.88556H55.442C56.487 3.88556 57.279 3.50056 57.279 2.38956C57.279 1.28956 56.487 0.904562 55.409 0.904562H53.924ZM61.822 2.02656C63.604 2.02656 64.737 3.31356 64.737 5.11756C64.737 6.88856 63.626 8.17556 61.811 8.17556C59.996 8.17556 58.918 6.88856 58.918 5.11756C58.918 3.31356 60.051 2.02656 61.822 2.02656ZM61.811 2.78556C60.524 2.78556 59.831 3.76456 59.831 5.10656C59.831 6.45956 60.524 7.41656 61.811 7.41656C63.098 7.41656 63.791 6.45956 63.791 5.10656C63.791 3.76456 63.087 2.78556 61.811 2.78556ZM67.267 7.99956L65.463 2.21356H66.409L67.102 4.57856C67.322 5.34856 67.542 6.16256 67.773 7.03156H67.795C68.026 6.20656 68.213 5.49156 68.488 4.55656L69.159 2.21356H70.083L70.776 4.65556C70.996 5.41556 71.227 6.20656 71.436 7.04256H71.469C71.689 6.27256 71.909 5.44756 72.151 4.62256L72.844 2.21356H73.735L71.931 7.99956H70.941L70.248 5.62356C70.017 4.84356 69.775 3.89656 69.621 3.32456H69.588C69.412 3.91856 69.225 4.73256 68.939 5.66756L68.268 7.99956H67.267ZM80.071 5.27156H75.352C75.385 6.44856 76.078 7.40556 77.343 7.40556C78.3 7.40556 78.883 6.85556 79.136 6.36056L79.983 6.54756C79.543 7.52656 78.586 8.17556 77.321 8.17556C75.539 8.17556 74.461 6.89956 74.461 5.09556C74.461 3.37956 75.583 2.02656 77.321 2.02656C79.092 2.02656 80.071 3.35756 80.071 5.20556V5.27156ZM75.374 4.57856H79.158C79.07 3.53356 78.377 2.75256 77.31 2.75256C76.122 2.75256 75.462 3.64356 75.374 4.57856ZM81.446 2.21356H82.293V2.62056C82.293 2.80756 82.293 3.05056 82.282 3.21456H82.304C82.513 2.53256 83.096 2.14756 83.921 2.14756C84.02 2.14756 84.196 2.15856 84.273 2.15856L84.405 3.00556C84.229 2.99556 84.02 2.99556 83.877 2.99556C82.612 2.99456 82.337 3.84156 82.337 5.15056V7.99956H81.457V2.92956C81.457 2.63156 81.457 2.42256 81.446 2.21356ZM90.488 5.27156H85.769C85.802 6.44856 86.495 7.40556 87.76 7.40556C88.717 7.40556 89.3 6.85556 89.553 6.36056L90.4 6.54756C89.96 7.52656 89.003 8.17556 87.738 8.17556C85.956 8.17556 84.878 6.89956 84.878 5.09556C84.878 3.37956 86 2.02656 87.738 2.02656C89.509 2.02656 90.488 3.35756 90.488 5.20556V5.27156ZM85.791 4.57856H89.575C89.487 3.53356 88.794 2.75256 87.727 2.75256C86.539 2.75256 85.879 3.64356 85.791 4.57856ZM96.285 7.99956V7.64756C96.285 7.46056 96.296 7.25156 96.296 6.98756H96.274C95.9 7.65856 95.163 8.13156 94.173 8.13156C92.567 8.13156 91.467 6.93256 91.467 5.11756C91.467 3.34656 92.523 2.05956 94.184 2.05956C95.185 2.05956 95.922 2.56556 96.252 3.21456C96.252 3.03856 96.241 2.67556 96.241 2.48856V0.101562H97.121V7.54956C97.121 7.68156 97.121 7.87956 97.132 8.00056H96.285V7.99956ZM94.305 2.81856C93.084 2.81856 92.391 3.80856 92.391 5.11856C92.391 6.43756 93.117 7.39456 94.305 7.39456C95.537 7.39456 96.296 6.43756 96.296 5.10656C96.296 3.78656 95.515 2.81856 94.305 2.81856ZM101.598 7.99956C101.609 7.71356 101.609 7.48256 101.609 7.25156V0.101562H102.5V2.25756C102.5 2.52156 102.478 2.95056 102.478 3.21456H102.489C102.83 2.57656 103.567 2.05956 104.557 2.05956C106.207 2.05956 107.263 3.34656 107.263 5.11756C107.263 6.94356 106.174 8.13156 104.557 8.13156C103.578 8.13156 102.841 7.66956 102.467 6.98756H102.445C102.456 7.17456 102.456 7.39456 102.456 7.59256V7.99956H101.598ZM104.414 2.81856C103.215 2.81856 102.434 3.77556 102.434 5.10656C102.434 6.44856 103.182 7.39456 104.425 7.39456C105.613 7.39456 106.339 6.43756 106.339 5.11756C106.339 3.79756 105.646 2.81856 104.414 2.81856ZM112.257 2.21356H113.214L110.805 8.57156C110.42 9.59456 110.09 10.0016 109.056 10.0016C108.858 10.0016 108.825 10.0016 108.583 9.99056L108.44 9.24256C108.671 9.25356 108.836 9.25356 109.023 9.25356C109.606 9.25356 109.826 8.91356 110.134 7.99956L107.901 2.21356H108.891L109.826 4.82056C110.09 5.55756 110.343 6.28356 110.574 6.99856H110.607C110.849 6.27256 111.091 5.54656 111.344 4.82056L112.257 2.21356Z" fill="#4F4F4F"/>
</g>
<defs>
<clipPath id="clip0_710_21547">
<rect width="167" height="36" fill="white"/>
</clipPath>
</defs>
</svg>
